<svg xmlns="http://www.w3.org/2000/svg" version="1.1" width="50" height="50" viewBox="0 0 50 50"><rect x="0" y="0" width="50" height="50" fill="#ffffff"/><g transform="scale(1.724)"><g transform="translate(0,0)"><path fill-rule="evenodd" d="M10 0L10 1L8 1L8 3L9 3L9 4L8 4L8 8L6 8L6 9L4 9L4 8L3 8L3 10L2 10L2 11L1 11L1 10L0 10L0 11L1 11L1 12L2 12L2 13L1 13L1 15L0 15L0 16L1 16L1 15L3 15L3 16L2 16L2 17L3 17L3 19L2 19L2 21L8 21L8 23L10 23L10 24L9 24L9 25L8 25L8 26L9 26L9 27L8 27L8 29L9 29L9 28L10 28L10 29L12 29L12 28L13 28L13 29L19 29L19 28L20 28L20 29L23 29L23 28L22 28L22 27L16 27L16 28L15 28L15 27L13 27L13 24L12 24L12 25L11 25L11 23L10 23L10 22L9 22L9 19L10 19L10 21L11 21L11 22L12 22L12 21L11 21L11 19L12 19L12 20L13 20L13 18L14 18L14 20L16 20L16 21L14 21L14 22L16 22L16 23L14 23L14 24L15 24L15 26L16 26L16 25L19 25L19 26L20 26L20 25L22 25L22 26L24 26L24 29L26 29L26 28L25 28L25 27L27 27L27 29L28 29L28 27L29 27L29 26L28 26L28 25L29 25L29 24L27 24L27 23L28 23L28 22L29 22L29 21L27 21L27 20L29 20L29 17L28 17L28 15L29 15L29 14L25 14L25 16L26 16L26 15L27 15L27 17L28 17L28 18L27 18L27 20L26 20L26 22L27 22L27 23L25 23L25 20L23 20L23 19L25 19L25 18L26 18L26 17L25 17L25 18L24 18L24 14L22 14L22 13L24 13L24 11L26 11L26 12L25 12L25 13L26 13L26 12L27 12L27 13L29 13L29 12L28 12L28 10L29 10L29 9L28 9L28 8L26 8L26 9L25 9L25 8L22 8L22 9L21 9L21 10L22 10L22 11L23 11L23 12L21 12L21 11L20 11L20 10L19 10L19 9L20 9L20 8L21 8L21 5L18 5L18 7L17 7L17 6L16 6L16 5L17 5L17 4L16 4L16 3L18 3L18 4L20 4L20 2L21 2L21 1L20 1L20 0L15 0L15 2L14 2L14 1L13 1L13 2L14 2L14 3L12 3L12 7L11 7L11 4L10 4L10 3L9 3L9 2L11 2L11 0ZM16 1L16 2L15 2L15 3L14 3L14 4L13 4L13 7L12 7L12 8L13 8L13 9L14 9L14 10L15 10L15 11L14 11L14 12L12 12L12 16L11 16L11 17L10 17L10 18L12 18L12 16L14 16L14 17L15 17L15 19L16 19L16 20L17 20L17 21L19 21L19 25L20 25L20 18L21 18L21 20L22 20L22 19L23 19L23 18L21 18L21 17L19 17L19 16L18 16L18 17L15 17L15 15L18 15L18 14L17 14L17 12L18 12L18 13L21 13L21 12L20 12L20 11L17 11L17 10L15 10L15 9L14 9L14 8L15 8L15 7L16 7L16 6L15 6L15 5L16 5L16 4L15 4L15 3L16 3L16 2L18 2L18 3L19 3L19 2L20 2L20 1L19 1L19 2L18 2L18 1ZM14 4L14 5L15 5L15 4ZM9 5L9 8L8 8L8 9L10 9L10 10L7 10L7 9L6 9L6 10L5 10L5 11L2 11L2 12L4 12L4 13L6 13L6 14L3 14L3 13L2 13L2 14L3 14L3 15L4 15L4 17L5 17L5 16L8 16L8 17L6 17L6 18L4 18L4 19L3 19L3 20L4 20L4 19L6 19L6 20L8 20L8 19L6 19L6 18L9 18L9 16L10 16L10 15L11 15L11 13L10 13L10 12L8 12L8 13L6 13L6 12L7 12L7 11L11 11L11 8L10 8L10 5ZM14 6L14 7L13 7L13 8L14 8L14 7L15 7L15 6ZM19 6L19 7L20 7L20 6ZM0 8L0 9L2 9L2 8ZM17 8L17 9L19 9L19 8ZM23 9L23 11L24 11L24 10L25 10L25 9ZM26 9L26 10L28 10L28 9ZM6 10L6 11L5 11L5 12L6 12L6 11L7 11L7 10ZM14 12L14 13L13 13L13 15L15 15L15 14L16 14L16 12ZM8 13L8 14L9 14L9 15L8 15L8 16L9 16L9 15L10 15L10 14L9 14L9 13ZM6 14L6 15L7 15L7 14ZM19 14L19 15L20 15L20 14ZM22 16L22 17L23 17L23 16ZM0 18L0 19L1 19L1 18ZM16 18L16 19L17 19L17 20L19 20L19 19L17 19L17 18ZM0 20L0 21L1 21L1 20ZM21 21L21 24L24 24L24 21ZM22 22L22 23L23 23L23 22ZM16 23L16 24L18 24L18 23ZM25 24L25 25L27 25L27 24ZM9 25L9 26L10 26L10 28L12 28L12 26L11 26L11 25ZM27 26L27 27L28 27L28 26ZM0 0L0 7L7 7L7 0ZM1 1L1 6L6 6L6 1ZM2 2L2 5L5 5L5 2ZM22 0L22 7L29 7L29 0ZM23 1L23 6L28 6L28 1ZM24 2L24 5L27 5L27 2ZM0 22L0 29L7 29L7 22ZM1 23L1 28L6 28L6 23ZM2 24L2 27L5 27L5 24Z" fill="#000000"/></g></g></svg>