<svg xmlns="http://www.w3.org/2000/svg" version="1.1" width="50" height="50" viewBox="0 0 50 50"><rect x="0" y="0" width="50" height="50" fill="#ffffff"/><g transform="scale(1.724)"><g transform="translate(0,0)"><path fill-rule="evenodd" d="M9 0L9 1L11 1L11 2L9 2L9 3L8 3L8 5L9 5L9 6L8 6L8 7L9 7L9 9L8 9L8 8L5 8L5 9L2 9L2 8L0 8L0 9L1 9L1 11L0 11L0 12L1 12L1 13L0 13L0 15L1 15L1 14L2 14L2 16L1 16L1 17L0 17L0 21L1 21L1 19L2 19L2 18L3 18L3 20L2 20L2 21L5 21L5 20L6 20L6 21L8 21L8 24L9 24L9 26L10 26L10 27L11 27L11 29L12 29L12 27L13 27L13 26L11 26L11 25L14 25L14 23L19 23L19 24L18 24L18 25L17 25L17 24L16 24L16 26L15 26L15 28L16 28L16 29L20 29L20 28L16 28L16 27L18 27L18 26L20 26L20 25L21 25L21 27L22 27L22 29L23 29L23 28L24 28L24 29L25 29L25 28L26 28L26 29L27 29L27 27L28 27L28 28L29 28L29 27L28 27L28 26L29 26L29 24L28 24L28 23L27 23L27 22L26 22L26 21L29 21L29 20L26 20L26 21L25 21L25 19L26 19L26 18L28 18L28 19L29 19L29 17L27 17L27 14L29 14L29 12L28 12L28 13L27 13L27 14L25 14L25 13L23 13L23 12L26 12L26 11L25 11L25 9L26 9L26 10L28 10L28 9L26 9L26 8L24 8L24 9L23 9L23 10L21 10L21 9L20 9L20 8L21 8L21 6L20 6L20 7L19 7L19 6L18 6L18 7L19 7L19 10L15 10L15 8L16 8L16 7L17 7L17 4L18 4L18 3L17 3L17 2L18 2L18 1L19 1L19 0L18 0L18 1L17 1L17 0L16 0L16 1L17 1L17 2L15 2L15 1L14 1L14 0L13 0L13 1L12 1L12 0ZM13 1L13 2L12 2L12 4L11 4L11 7L10 7L10 6L9 6L9 7L10 7L10 8L11 8L11 10L10 10L10 9L9 9L9 10L10 10L10 11L8 11L8 9L6 9L6 10L4 10L4 12L7 12L7 11L8 11L8 12L10 12L10 11L11 11L11 10L13 10L13 11L12 11L12 12L11 12L11 14L9 14L9 13L6 13L6 14L8 14L8 15L5 15L5 14L4 14L4 13L3 13L3 12L2 12L2 13L3 13L3 17L5 17L5 16L7 16L7 17L6 17L6 18L8 18L8 17L9 17L9 18L10 18L10 19L6 19L6 20L10 20L10 22L11 22L11 23L10 23L10 25L11 25L11 24L12 24L12 23L13 23L13 22L12 22L12 21L14 21L14 22L19 22L19 21L20 21L20 19L19 19L19 18L18 18L18 17L21 17L21 18L22 18L22 20L23 20L23 19L24 19L24 18L22 18L22 17L23 17L23 16L24 16L24 17L25 17L25 18L26 18L26 17L25 17L25 16L26 16L26 15L25 15L25 14L22 14L22 12L23 12L23 11L24 11L24 10L23 10L23 11L22 11L22 12L21 12L21 11L20 11L20 10L19 10L19 11L20 11L20 13L21 13L21 15L20 15L20 14L19 14L19 12L18 12L18 11L15 11L15 10L14 10L14 8L15 8L15 7L16 7L16 5L15 5L15 4L16 4L16 3L15 3L15 2L14 2L14 1ZM20 1L20 2L19 2L19 3L20 3L20 4L19 4L19 5L21 5L21 3L20 3L20 2L21 2L21 1ZM9 3L9 5L10 5L10 3ZM14 3L14 4L12 4L12 5L13 5L13 6L12 6L12 9L13 9L13 8L14 8L14 7L15 7L15 5L14 5L14 4L15 4L15 3ZM13 6L13 7L14 7L14 6ZM17 8L17 9L18 9L18 8ZM2 10L2 11L3 11L3 10ZM6 10L6 11L7 11L7 10ZM14 11L14 12L13 12L13 13L12 13L12 14L13 14L13 15L12 15L12 17L13 17L13 16L14 16L14 17L15 17L15 18L12 18L12 19L11 19L11 21L12 21L12 19L14 19L14 20L15 20L15 21L16 21L16 20L17 20L17 21L18 21L18 20L17 20L17 19L18 19L18 18L16 18L16 17L18 17L18 16L16 16L16 17L15 17L15 15L19 15L19 14L17 14L17 13L16 13L16 14L15 14L15 11ZM4 15L4 16L5 16L5 15ZM8 15L8 16L9 16L9 17L11 17L11 16L9 16L9 15ZM24 15L24 16L25 16L25 15ZM28 15L28 16L29 16L29 15ZM1 17L1 18L2 18L2 17ZM4 18L4 19L5 19L5 18ZM15 19L15 20L16 20L16 19ZM21 21L21 24L24 24L24 21ZM22 22L22 23L23 23L23 22ZM25 23L25 24L26 24L26 25L27 25L27 26L28 26L28 24L27 24L27 23ZM22 25L22 26L25 26L25 25ZM8 27L8 29L10 29L10 28L9 28L9 27ZM24 27L24 28L25 28L25 27ZM0 0L0 7L7 7L7 0ZM1 1L1 6L6 6L6 1ZM2 2L2 5L5 5L5 2ZM22 0L22 7L29 7L29 0ZM23 1L23 6L28 6L28 1ZM24 2L24 5L27 5L27 2ZM0 22L0 29L7 29L7 22ZM1 23L1 28L6 28L6 23ZM2 24L2 27L5 27L5 24Z" fill="#000000"/></g></g></svg>